<svg width="27" height="26" viewBox="0 0 27 26" fill="none" xmlns="http://www.w3.org/2000/svg">
<g clip-path="url(#clip0_1_5252)">
<path d="M4.54734 0.849835C4.32846 0.975274 4.15144 1.16248 4.03844 1.38803C3.92544 1.61358 3.88147 1.86745 3.91204 2.11787L5.85 22.915C5.97388 23.9248 7.16805 24.3954 7.94723 23.7414L11.5931 20.6816L13.4269 23.8581C14.4816 25.6845 16.5996 25.8766 18.4257 24.8219C20.2526 23.7673 21.1451 21.8373 20.0905 20.0109L18.2631 16.8457L22.6653 15.244C23.6212 14.8959 23.8107 13.6269 22.9982 13.0147L5.95618 0.937551C5.75568 0.786711 5.51533 0.698002 5.26491 0.682411C5.01449 0.666819 4.765 0.725031 4.54734 0.849835ZM6.82436 4.80167L19.5675 13.6417L14.5116 15.4815L14.5352 15.5181L17.8694 21.2933C18.2356 21.9276 17.7781 22.2346 17.1436 22.6008C16.509 22.9671 16.0145 23.21 15.6483 22.5757L12.314 16.8005L12.2876 16.7498L8.10856 20.2576L6.82436 4.80167Z" fill="#5B66FE"/>
</g>
<defs>
<clipPath id="clip0_1_5252">
<rect width="25.6479" height="25.6479" fill="white" transform="translate(0.882019 0.248047)"/>
</clipPath>
</defs>
</svg>
